<?xml version="1.0" encoding="utf-8" standalone="no"?>
<!DOCTYPE svg PUBLIC "-//W3C//DTD SVG 1.1//EN"
  "http://www.w3.org/Graphics/SVG/1.1/DTD/svg11.dtd">
<svg height="345.6pt" version="1.1" viewBox="0 0 460.8 345.6" width="460.8pt" xmlns="http://www.w3.org/2000/svg" xmlns:xlink="http://www.w3.org/1999/xlink">
 <metadata>
  <rdf:RDF xmlns:cc="http://creativecommons.org/ns#" xmlns:dc="http://purl.org/dc/elements/1.1/" xmlns:rdf="http://www.w3.org/1999/02/22-rdf-syntax-ns#">
   <cc:Work>
    <dc:type rdf:resource="http://purl.org/dc/dcmitype/StillImage"/>
    <dc:date>2021-10-20T15:05:36.333101</dc:date>
    <dc:format>image/svg+xml</dc:format>
    <dc:creator>
     <cc:Agent>
      <dc:title>Matplotlib v3.4.3, https://matplotlib.org/</dc:title>
     </cc:Agent>
    </dc:creator>
   </cc:Work>
  </rdf:RDF>
 </metadata>
 <defs>
  <style type="text/css">*{stroke-linecap:butt;stroke-linejoin:round;}</style>
 </defs>
 <g id="figure_1">
  <g id="patch_1">
   <path d="M 0 345.6 
L 460.8 345.6 
L 460.8 0 
L 0 0 
z
" style="fill:#ffffff;"/>
  </g>
  <g id="axes_1">
   <g id="patch_2">
    <path d="M 57.6 307.584 
L 414.72 307.584 
L 414.72 51.84 
L 57.6 51.84 
z
" style="fill:#ffffff;"/>
   </g>
   <g id="matplotlib.axis_1">
    <g id="xtick_1">
     <g id="line2d_1">
      <defs>
       <path d="M 0 0 
L 0 3.5 
" id="mbdf3a2e98c" style="stroke:#000000;stroke-width:0.8;"/>
      </defs>
      <g>
       <use style="stroke:#000000;stroke-width:0.8;" x="74.098855" xlink:href="#mbdf3a2e98c" y="307.584"/>
      </g>
     </g>
     <g id="text_1">
      <!-- −10 -->
      <g transform="translate(63.546512 322.182437)scale(0.1 -0.1)">
       <defs>
        <path d="M 678 2272 
L 4684 2272 
L 4684 1741 
L 678 1741 
L 678 2272 
z
" id="DejaVuSans-2212" transform="scale(0.015625)"/>
        <path d="M 794 531 
L 1825 531 
L 1825 4091 
L 703 3866 
L 703 4441 
L 1819 4666 
L 2450 4666 
L 2450 531 
L 3481 531 
L 3481 0 
L 794 0 
L 794 531 
z
" id="DejaVuSans-31" transform="scale(0.015625)"/>
        <path d="M 2034 4250 
Q 1547 4250 1301 3770 
Q 1056 3291 1056 2328 
Q 1056 1369 1301 889 
Q 1547 409 2034 409 
Q 2525 409 2770 889 
Q 3016 1369 3016 2328 
Q 3016 3291 2770 3770 
Q 2525 4250 2034 4250 
z
M 2034 4750 
Q 2819 4750 3233 4129 
Q 3647 3509 3647 2328 
Q 3647 1150 3233 529 
Q 2819 -91 2034 -91 
Q 1250 -91 836 529 
Q 422 1150 422 2328 
Q 422 3509 836 4129 
Q 1250 4750 2034 4750 
z
" id="DejaVuSans-30" transform="scale(0.015625)"/>
       </defs>
       <use xlink:href="#DejaVuSans-2212"/>
       <use x="83.789062" xlink:href="#DejaVuSans-31"/>
       <use x="147.412109" xlink:href="#DejaVuSans-30"/>
      </g>
     </g>
    </g>
    <g id="xtick_2">
     <g id="line2d_2">
      <g>
       <use style="stroke:#000000;stroke-width:0.8;" x="140.095218" xlink:href="#mbdf3a2e98c" y="307.584"/>
      </g>
     </g>
     <g id="text_2">
      <!-- −8 -->
      <g transform="translate(132.724125 322.182437)scale(0.1 -0.1)">
       <defs>
        <path d="M 2034 2216 
Q 1584 2216 1326 1975 
Q 1069 1734 1069 1313 
Q 1069 891 1326 650 
Q 1584 409 2034 409 
Q 2484 409 2743 651 
Q 3003 894 3003 1313 
Q 3003 1734 2745 1975 
Q 2488 2216 2034 2216 
z
M 1403 2484 
Q 997 2584 770 2862 
Q 544 3141 544 3541 
Q 544 4100 942 4425 
Q 1341 4750 2034 4750 
Q 2731 4750 3128 4425 
Q 3525 4100 3525 3541 
Q 3525 3141 3298 2862 
Q 3072 2584 2669 2484 
Q 3125 2378 3379 2068 
Q 3634 1759 3634 1313 
Q 3634 634 3220 271 
Q 2806 -91 2034 -91 
Q 1263 -91 848 271 
Q 434 634 434 1313 
Q 434 1759 690 2068 
Q 947 2378 1403 2484 
z
M 1172 3481 
Q 1172 3119 1398 2916 
Q 1625 2713 2034 2713 
Q 2441 2713 2670 2916 
Q 2900 3119 2900 3481 
Q 2900 3844 2670 4047 
Q 2441 4250 2034 4250 
Q 1625 4250 1398 4047 
Q 1172 3844 1172 3481 
z
" id="DejaVuSans-38" transform="scale(0.015625)"/>
       </defs>
       <use xlink:href="#DejaVuSans-2212"/>
       <use x="83.789062" xlink:href="#DejaVuSans-38"/>
      </g>
     </g>
    </g>
    <g id="xtick_3">
     <g id="line2d_3">
      <g>
       <use style="stroke:#000000;stroke-width:0.8;" x="206.091581" xlink:href="#mbdf3a2e98c" y="307.584"/>
      </g>
     </g>
     <g id="text_3">
      <!-- −6 -->
      <g transform="translate(198.720488 322.182437)scale(0.1 -0.1)">
       <defs>
        <path d="M 2113 2584 
Q 1688 2584 1439 2293 
Q 1191 2003 1191 1497 
Q 1191 994 1439 701 
Q 1688 409 2113 409 
Q 2538 409 2786 701 
Q 3034 994 3034 1497 
Q 3034 2003 2786 2293 
Q 2538 2584 2113 2584 
z
M 3366 4563 
L 3366 3988 
Q 3128 4100 2886 4159 
Q 2644 4219 2406 4219 
Q 1781 4219 1451 3797 
Q 1122 3375 1075 2522 
Q 1259 2794 1537 2939 
Q 1816 3084 2150 3084 
Q 2853 3084 3261 2657 
Q 3669 2231 3669 1497 
Q 3669 778 3244 343 
Q 2819 -91 2113 -91 
Q 1303 -91 875 529 
Q 447 1150 447 2328 
Q 447 3434 972 4092 
Q 1497 4750 2381 4750 
Q 2619 4750 2861 4703 
Q 3103 4656 3366 4563 
z
" id="DejaVuSans-36" transform="scale(0.015625)"/>
       </defs>
       <use xlink:href="#DejaVuSans-2212"/>
       <use x="83.789062" xlink:href="#DejaVuSans-36"/>
      </g>
     </g>
    </g>
    <g id="xtick_4">
     <g id="line2d_4">
      <g>
       <use style="stroke:#000000;stroke-width:0.8;" x="272.087945" xlink:href="#mbdf3a2e98c" y="307.584"/>
      </g>
     </g>
     <g id="text_4">
      <!-- −4 -->
      <g transform="translate(264.716851 322.182437)scale(0.1 -0.1)">
       <defs>
        <path d="M 2419 4116 
L 825 1625 
L 2419 1625 
L 2419 4116 
z
M 2253 4666 
L 3047 4666 
L 3047 1625 
L 3713 1625 
L 3713 1100 
L 3047 1100 
L 3047 0 
L 2419 0 
L 2419 1100 
L 313 1100 
L 313 1709 
L 2253 4666 
z
" id="DejaVuSans-34" transform="scale(0.015625)"/>
       </defs>
       <use xlink:href="#DejaVuSans-2212"/>
       <use x="83.789062" xlink:href="#DejaVuSans-34"/>
      </g>
     </g>
    </g>
    <g id="xtick_5">
     <g id="line2d_5">
      <g>
       <use style="stroke:#000000;stroke-width:0.8;" x="338.084308" xlink:href="#mbdf3a2e98c" y="307.584"/>
      </g>
     </g>
     <g id="text_5">
      <!-- −2 -->
      <g transform="translate(330.713214 322.182437)scale(0.1 -0.1)">
       <defs>
        <path d="M 1228 531 
L 3431 531 
L 3431 0 
L 469 0 
L 469 531 
Q 828 903 1448 1529 
Q 2069 2156 2228 2338 
Q 2531 2678 2651 2914 
Q 2772 3150 2772 3378 
Q 2772 3750 2511 3984 
Q 2250 4219 1831 4219 
Q 1534 4219 1204 4116 
Q 875 4013 500 3803 
L 500 4441 
Q 881 4594 1212 4672 
Q 1544 4750 1819 4750 
Q 2544 4750 2975 4387 
Q 3406 4025 3406 3419 
Q 3406 3131 3298 2873 
Q 3191 2616 2906 2266 
Q 2828 2175 2409 1742 
Q 1991 1309 1228 531 
z
" id="DejaVuSans-32" transform="scale(0.015625)"/>
       </defs>
       <use xlink:href="#DejaVuSans-2212"/>
       <use x="83.789062" xlink:href="#DejaVuSans-32"/>
      </g>
     </g>
    </g>
    <g id="xtick_6">
     <g id="line2d_6">
      <g>
       <use style="stroke:#000000;stroke-width:0.8;" x="404.080671" xlink:href="#mbdf3a2e98c" y="307.584"/>
      </g>
     </g>
     <g id="text_6">
      <!-- 0 -->
      <g transform="translate(400.899421 322.182437)scale(0.1 -0.1)">
       <use xlink:href="#DejaVuSans-30"/>
      </g>
     </g>
    </g>
    <g id="text_7">
     <!-- X -->
     <g transform="translate(232.735 335.860562)scale(0.1 -0.1)">
      <defs>
       <path d="M 403 4666 
L 1081 4666 
L 2241 2931 
L 3406 4666 
L 4084 4666 
L 2584 2425 
L 4184 0 
L 3506 0 
L 2194 1984 
L 872 0 
L 191 0 
L 1856 2491 
L 403 4666 
z
" id="DejaVuSans-58" transform="scale(0.015625)"/>
      </defs>
      <use xlink:href="#DejaVuSans-58"/>
     </g>
    </g>
   </g>
   <g id="matplotlib.axis_2">
    <g id="ytick_1">
     <g id="line2d_7">
      <defs>
       <path d="M 0 0 
L -3.5 0 
" id="me9eea39ec3" style="stroke:#000000;stroke-width:0.8;"/>
      </defs>
      <g>
       <use style="stroke:#000000;stroke-width:0.8;" x="57.6" xlink:href="#me9eea39ec3" y="295.768691"/>
      </g>
     </g>
     <g id="text_8">
      <!-- −30 -->
      <g transform="translate(29.495313 299.567909)scale(0.1 -0.1)">
       <defs>
        <path d="M 2597 2516 
Q 3050 2419 3304 2112 
Q 3559 1806 3559 1356 
Q 3559 666 3084 287 
Q 2609 -91 1734 -91 
Q 1441 -91 1130 -33 
Q 819 25 488 141 
L 488 750 
Q 750 597 1062 519 
Q 1375 441 1716 441 
Q 2309 441 2620 675 
Q 2931 909 2931 1356 
Q 2931 1769 2642 2001 
Q 2353 2234 1838 2234 
L 1294 2234 
L 1294 2753 
L 1863 2753 
Q 2328 2753 2575 2939 
Q 2822 3125 2822 3475 
Q 2822 3834 2567 4026 
Q 2313 4219 1838 4219 
Q 1578 4219 1281 4162 
Q 984 4106 628 3988 
L 628 4550 
Q 988 4650 1302 4700 
Q 1616 4750 1894 4750 
Q 2613 4750 3031 4423 
Q 3450 4097 3450 3541 
Q 3450 3153 3228 2886 
Q 3006 2619 2597 2516 
z
" id="DejaVuSans-33" transform="scale(0.015625)"/>
       </defs>
       <use xlink:href="#DejaVuSans-2212"/>
       <use x="83.789062" xlink:href="#DejaVuSans-33"/>
       <use x="147.412109" xlink:href="#DejaVuSans-30"/>
      </g>
     </g>
    </g>
    <g id="ytick_2">
     <g id="line2d_8">
      <g>
       <use style="stroke:#000000;stroke-width:0.8;" x="57.6" xlink:href="#me9eea39ec3" y="256.383764"/>
      </g>
     </g>
     <g id="text_9">
      <!-- −25 -->
      <g transform="translate(29.495313 260.182983)scale(0.1 -0.1)">
       <defs>
        <path d="M 691 4666 
L 3169 4666 
L 3169 4134 
L 1269 4134 
L 1269 2991 
Q 1406 3038 1543 3061 
Q 1681 3084 1819 3084 
Q 2600 3084 3056 2656 
Q 3513 2228 3513 1497 
Q 3513 744 3044 326 
Q 2575 -91 1722 -91 
Q 1428 -91 1123 -41 
Q 819 9 494 109 
L 494 744 
Q 775 591 1075 516 
Q 1375 441 1709 441 
Q 2250 441 2565 725 
Q 2881 1009 2881 1497 
Q 2881 1984 2565 2268 
Q 2250 2553 1709 2553 
Q 1456 2553 1204 2497 
Q 953 2441 691 2322 
L 691 4666 
z
" id="DejaVuSans-35" transform="scale(0.015625)"/>
       </defs>
       <use xlink:href="#DejaVuSans-2212"/>
       <use x="83.789062" xlink:href="#DejaVuSans-32"/>
       <use x="147.412109" xlink:href="#DejaVuSans-35"/>
      </g>
     </g>
    </g>
    <g id="ytick_3">
     <g id="line2d_9">
      <g>
       <use style="stroke:#000000;stroke-width:0.8;" x="57.6" xlink:href="#me9eea39ec3" y="216.998838"/>
      </g>
     </g>
     <g id="text_10">
      <!-- −20 -->
      <g transform="translate(29.495313 220.798057)scale(0.1 -0.1)">
       <use xlink:href="#DejaVuSans-2212"/>
       <use x="83.789062" xlink:href="#DejaVuSans-32"/>
       <use x="147.412109" xlink:href="#DejaVuSans-30"/>
      </g>
     </g>
    </g>
    <g id="ytick_4">
     <g id="line2d_10">
      <g>
       <use style="stroke:#000000;stroke-width:0.8;" x="57.6" xlink:href="#me9eea39ec3" y="177.613912"/>
      </g>
     </g>
     <g id="text_11">
      <!-- −15 -->
      <g transform="translate(29.495313 181.41313)scale(0.1 -0.1)">
       <use xlink:href="#DejaVuSans-2212"/>
       <use x="83.789062" xlink:href="#DejaVuSans-31"/>
       <use x="147.412109" xlink:href="#DejaVuSans-35"/>
      </g>
     </g>
    </g>
    <g id="ytick_5">
     <g id="line2d_11">
      <g>
       <use style="stroke:#000000;stroke-width:0.8;" x="57.6" xlink:href="#me9eea39ec3" y="138.228985"/>
      </g>
     </g>
     <g id="text_12">
      <!-- −10 -->
      <g transform="translate(29.495313 142.028204)scale(0.1 -0.1)">
       <use xlink:href="#DejaVuSans-2212"/>
       <use x="83.789062" xlink:href="#DejaVuSans-31"/>
       <use x="147.412109" xlink:href="#DejaVuSans-30"/>
      </g>
     </g>
    </g>
    <g id="ytick_6">
     <g id="line2d_12">
      <g>
       <use style="stroke:#000000;stroke-width:0.8;" x="57.6" xlink:href="#me9eea39ec3" y="98.844059"/>
      </g>
     </g>
     <g id="text_13">
      <!-- −5 -->
      <g transform="translate(35.857813 102.643278)scale(0.1 -0.1)">
       <use xlink:href="#DejaVuSans-2212"/>
       <use x="83.789062" xlink:href="#DejaVuSans-35"/>
      </g>
     </g>
    </g>
    <g id="ytick_7">
     <g id="line2d_13">
      <g>
       <use style="stroke:#000000;stroke-width:0.8;" x="57.6" xlink:href="#me9eea39ec3" y="59.459133"/>
      </g>
     </g>
     <g id="text_14">
      <!-- 0 -->
      <g transform="translate(44.2375 63.258351)scale(0.1 -0.1)">
       <use xlink:href="#DejaVuSans-30"/>
      </g>
     </g>
    </g>
    <g id="text_15">
     <!-- Y -->
     <g transform="translate(23.415625 182.765906)rotate(-90)scale(0.1 -0.1)">
      <defs>
       <path d="M -13 4666 
L 666 4666 
L 1959 2747 
L 3244 4666 
L 3922 4666 
L 2272 2222 
L 2272 0 
L 1638 0 
L 1638 2222 
L -13 4666 
z
" id="DejaVuSans-59" transform="scale(0.015625)"/>
      </defs>
      <use xlink:href="#DejaVuSans-59"/>
     </g>
    </g>
   </g>
   <g id="patch_3">
    <path d="M 57.6 307.584 
L 57.6 51.84 
" style="fill:none;stroke:#000000;stroke-linecap:square;stroke-linejoin:miter;stroke-width:0.8;"/>
   </g>
   <g id="patch_4">
    <path d="M 414.72 307.584 
L 414.72 51.84 
" style="fill:none;stroke:#000000;stroke-linecap:square;stroke-linejoin:miter;stroke-width:0.8;"/>
   </g>
   <g id="patch_5">
    <path d="M 57.6 307.584 
L 414.72 307.584 
" style="fill:none;stroke:#000000;stroke-linecap:square;stroke-linejoin:miter;stroke-width:0.8;"/>
   </g>
   <g id="patch_6">
    <path d="M 57.6 51.84 
L 414.72 51.84 
" style="fill:none;stroke:#000000;stroke-linecap:square;stroke-linejoin:miter;stroke-width:0.8;"/>
   </g>
   <g id="text_16">
    <!-- Starting point: $x=(-10,-30)$ -->
    <g transform="translate(144.72 18.91425)scale(0.12 -0.12)">
     <defs>
      <path d="M 3425 4513 
L 3425 3897 
Q 3066 4069 2747 4153 
Q 2428 4238 2131 4238 
Q 1616 4238 1336 4038 
Q 1056 3838 1056 3469 
Q 1056 3159 1242 3001 
Q 1428 2844 1947 2747 
L 2328 2669 
Q 3034 2534 3370 2195 
Q 3706 1856 3706 1288 
Q 3706 609 3251 259 
Q 2797 -91 1919 -91 
Q 1588 -91 1214 -16 
Q 841 59 441 206 
L 441 856 
Q 825 641 1194 531 
Q 1563 422 1919 422 
Q 2459 422 2753 634 
Q 3047 847 3047 1241 
Q 3047 1584 2836 1778 
Q 2625 1972 2144 2069 
L 1759 2144 
Q 1053 2284 737 2584 
Q 422 2884 422 3419 
Q 422 4038 858 4394 
Q 1294 4750 2059 4750 
Q 2388 4750 2728 4690 
Q 3069 4631 3425 4513 
z
" id="DejaVuSans-53" transform="scale(0.015625)"/>
      <path d="M 1172 4494 
L 1172 3500 
L 2356 3500 
L 2356 3053 
L 1172 3053 
L 1172 1153 
Q 1172 725 1289 603 
Q 1406 481 1766 481 
L 2356 481 
L 2356 0 
L 1766 0 
Q 1100 0 847 248 
Q 594 497 594 1153 
L 594 3053 
L 172 3053 
L 172 3500 
L 594 3500 
L 594 4494 
L 1172 4494 
z
" id="DejaVuSans-74" transform="scale(0.015625)"/>
      <path d="M 2194 1759 
Q 1497 1759 1228 1600 
Q 959 1441 959 1056 
Q 959 750 1161 570 
Q 1363 391 1709 391 
Q 2188 391 2477 730 
Q 2766 1069 2766 1631 
L 2766 1759 
L 2194 1759 
z
M 3341 1997 
L 3341 0 
L 2766 0 
L 2766 531 
Q 2569 213 2275 61 
Q 1981 -91 1556 -91 
Q 1019 -91 701 211 
Q 384 513 384 1019 
Q 384 1609 779 1909 
Q 1175 2209 1959 2209 
L 2766 2209 
L 2766 2266 
Q 2766 2663 2505 2880 
Q 2244 3097 1772 3097 
Q 1472 3097 1187 3025 
Q 903 2953 641 2809 
L 641 3341 
Q 956 3463 1253 3523 
Q 1550 3584 1831 3584 
Q 2591 3584 2966 3190 
Q 3341 2797 3341 1997 
z
" id="DejaVuSans-61" transform="scale(0.015625)"/>
      <path d="M 2631 2963 
Q 2534 3019 2420 3045 
Q 2306 3072 2169 3072 
Q 1681 3072 1420 2755 
Q 1159 2438 1159 1844 
L 1159 0 
L 581 0 
L 581 3500 
L 1159 3500 
L 1159 2956 
Q 1341 3275 1631 3429 
Q 1922 3584 2338 3584 
Q 2397 3584 2469 3576 
Q 2541 3569 2628 3553 
L 2631 2963 
z
" id="DejaVuSans-72" transform="scale(0.015625)"/>
      <path d="M 603 3500 
L 1178 3500 
L 1178 0 
L 603 0 
L 603 3500 
z
M 603 4863 
L 1178 4863 
L 1178 4134 
L 603 4134 
L 603 4863 
z
" id="DejaVuSans-69" transform="scale(0.015625)"/>
      <path d="M 3513 2113 
L 3513 0 
L 2938 0 
L 2938 2094 
Q 2938 2591 2744 2837 
Q 2550 3084 2163 3084 
Q 1697 3084 1428 2787 
Q 1159 2491 1159 1978 
L 1159 0 
L 581 0 
L 581 3500 
L 1159 3500 
L 1159 2956 
Q 1366 3272 1645 3428 
Q 1925 3584 2291 3584 
Q 2894 3584 3203 3211 
Q 3513 2838 3513 2113 
z
" id="DejaVuSans-6e" transform="scale(0.015625)"/>
      <path d="M 2906 1791 
Q 2906 2416 2648 2759 
Q 2391 3103 1925 3103 
Q 1463 3103 1205 2759 
Q 947 2416 947 1791 
Q 947 1169 1205 825 
Q 1463 481 1925 481 
Q 2391 481 2648 825 
Q 2906 1169 2906 1791 
z
M 3481 434 
Q 3481 -459 3084 -895 
Q 2688 -1331 1869 -1331 
Q 1566 -1331 1297 -1286 
Q 1028 -1241 775 -1147 
L 775 -588 
Q 1028 -725 1275 -790 
Q 1522 -856 1778 -856 
Q 2344 -856 2625 -561 
Q 2906 -266 2906 331 
L 2906 616 
Q 2728 306 2450 153 
Q 2172 0 1784 0 
Q 1141 0 747 490 
Q 353 981 353 1791 
Q 353 2603 747 3093 
Q 1141 3584 1784 3584 
Q 2172 3584 2450 3431 
Q 2728 3278 2906 2969 
L 2906 3500 
L 3481 3500 
L 3481 434 
z
" id="DejaVuSans-67" transform="scale(0.015625)"/>
      <path id="DejaVuSans-20" transform="scale(0.015625)"/>
      <path d="M 1159 525 
L 1159 -1331 
L 581 -1331 
L 581 3500 
L 1159 3500 
L 1159 2969 
Q 1341 3281 1617 3432 
Q 1894 3584 2278 3584 
Q 2916 3584 3314 3078 
Q 3713 2572 3713 1747 
Q 3713 922 3314 415 
Q 2916 -91 2278 -91 
Q 1894 -91 1617 61 
Q 1341 213 1159 525 
z
M 3116 1747 
Q 3116 2381 2855 2742 
Q 2594 3103 2138 3103 
Q 1681 3103 1420 2742 
Q 1159 2381 1159 1747 
Q 1159 1113 1420 752 
Q 1681 391 2138 391 
Q 2594 391 2855 752 
Q 3116 1113 3116 1747 
z
" id="DejaVuSans-70" transform="scale(0.015625)"/>
      <path d="M 1959 3097 
Q 1497 3097 1228 2736 
Q 959 2375 959 1747 
Q 959 1119 1226 758 
Q 1494 397 1959 397 
Q 2419 397 2687 759 
Q 2956 1122 2956 1747 
Q 2956 2369 2687 2733 
Q 2419 3097 1959 3097 
z
M 1959 3584 
Q 2709 3584 3137 3096 
Q 3566 2609 3566 1747 
Q 3566 888 3137 398 
Q 2709 -91 1959 -91 
Q 1206 -91 779 398 
Q 353 888 353 1747 
Q 353 2609 779 3096 
Q 1206 3584 1959 3584 
z
" id="DejaVuSans-6f" transform="scale(0.015625)"/>
      <path d="M 750 794 
L 1409 794 
L 1409 0 
L 750 0 
L 750 794 
z
M 750 3309 
L 1409 3309 
L 1409 2516 
L 750 2516 
L 750 3309 
z
" id="DejaVuSans-3a" transform="scale(0.015625)"/>
      <path d="M 3841 3500 
L 2234 1784 
L 3219 0 
L 2559 0 
L 1819 1388 
L 531 0 
L -166 0 
L 1556 1844 
L 641 3500 
L 1300 3500 
L 1972 2234 
L 3144 3500 
L 3841 3500 
z
" id="DejaVuSans-Oblique-78" transform="scale(0.015625)"/>
      <path d="M 678 2906 
L 4684 2906 
L 4684 2381 
L 678 2381 
L 678 2906 
z
M 678 1631 
L 4684 1631 
L 4684 1100 
L 678 1100 
L 678 1631 
z
" id="DejaVuSans-3d" transform="scale(0.015625)"/>
      <path d="M 1984 4856 
Q 1566 4138 1362 3434 
Q 1159 2731 1159 2009 
Q 1159 1288 1364 580 
Q 1569 -128 1984 -844 
L 1484 -844 
Q 1016 -109 783 600 
Q 550 1309 550 2009 
Q 550 2706 781 3412 
Q 1013 4119 1484 4856 
L 1984 4856 
z
" id="DejaVuSans-28" transform="scale(0.015625)"/>
      <path d="M 750 794 
L 1409 794 
L 1409 256 
L 897 -744 
L 494 -744 
L 750 256 
L 750 794 
z
" id="DejaVuSans-2c" transform="scale(0.015625)"/>
      <path d="M 513 4856 
L 1013 4856 
Q 1481 4119 1714 3412 
Q 1947 2706 1947 2009 
Q 1947 1309 1714 600 
Q 1481 -109 1013 -844 
L 513 -844 
Q 928 -128 1133 580 
Q 1338 1288 1338 2009 
Q 1338 2731 1133 3434 
Q 928 4138 513 4856 
z
" id="DejaVuSans-29" transform="scale(0.015625)"/>
     </defs>
     <use transform="translate(0 0.015625)" xlink:href="#DejaVuSans-53"/>
     <use transform="translate(63.476562 0.015625)" xlink:href="#DejaVuSans-74"/>
     <use transform="translate(102.685547 0.015625)" xlink:href="#DejaVuSans-61"/>
     <use transform="translate(163.964844 0.015625)" xlink:href="#DejaVuSans-72"/>
     <use transform="translate(205.078125 0.015625)" xlink:href="#DejaVuSans-74"/>
     <use transform="translate(244.287109 0.015625)" xlink:href="#DejaVuSans-69"/>
     <use transform="translate(272.070312 0.015625)" xlink:href="#DejaVuSans-6e"/>
     <use transform="translate(335.449219 0.015625)" xlink:href="#DejaVuSans-67"/>
     <use transform="translate(398.925781 0.015625)" xlink:href="#DejaVuSans-20"/>
     <use transform="translate(430.712891 0.015625)" xlink:href="#DejaVuSans-70"/>
     <use transform="translate(494.189453 0.015625)" xlink:href="#DejaVuSans-6f"/>
     <use transform="translate(555.371094 0.015625)" xlink:href="#DejaVuSans-69"/>
     <use transform="translate(583.154297 0.015625)" xlink:href="#DejaVuSans-6e"/>
     <use transform="translate(646.533203 0.015625)" xlink:href="#DejaVuSans-74"/>
     <use transform="translate(685.742188 0.015625)" xlink:href="#DejaVuSans-3a"/>
     <use transform="translate(719.433594 0.015625)" xlink:href="#DejaVuSans-20"/>
     <use transform="translate(751.220703 0.015625)" xlink:href="#DejaVuSans-Oblique-78"/>
     <use transform="translate(829.882812 0.015625)" xlink:href="#DejaVuSans-3d"/>
     <use transform="translate(933.154297 0.015625)" xlink:href="#DejaVuSans-28"/>
     <use transform="translate(972.167969 0.015625)" xlink:href="#DejaVuSans-2212"/>
     <use transform="translate(1055.957031 0.015625)" xlink:href="#DejaVuSans-31"/>
     <use transform="translate(1119.580078 0.015625)" xlink:href="#DejaVuSans-30"/>
     <use transform="translate(1183.203125 0.015625)" xlink:href="#DejaVuSans-2c"/>
     <use transform="translate(1253.955078 0.015625)" xlink:href="#DejaVuSans-2212"/>
     <use transform="translate(1357.226562 0.015625)" xlink:href="#DejaVuSans-33"/>
     <use transform="translate(1420.849609 0.015625)" xlink:href="#DejaVuSans-30"/>
     <use transform="translate(1484.472656 0.015625)" xlink:href="#DejaVuSans-29"/>
    </g>
    <!-- Initial learning coefficient: $\alpha=0.1$ -->
    <g transform="translate(135 32.37825)scale(0.12 -0.12)">
     <defs>
      <path d="M 628 4666 
L 1259 4666 
L 1259 0 
L 628 0 
L 628 4666 
z
" id="DejaVuSans-49" transform="scale(0.015625)"/>
      <path d="M 603 4863 
L 1178 4863 
L 1178 0 
L 603 0 
L 603 4863 
z
" id="DejaVuSans-6c" transform="scale(0.015625)"/>
      <path d="M 3597 1894 
L 3597 1613 
L 953 1613 
Q 991 1019 1311 708 
Q 1631 397 2203 397 
Q 2534 397 2845 478 
Q 3156 559 3463 722 
L 3463 178 
Q 3153 47 2828 -22 
Q 2503 -91 2169 -91 
Q 1331 -91 842 396 
Q 353 884 353 1716 
Q 353 2575 817 3079 
Q 1281 3584 2069 3584 
Q 2775 3584 3186 3129 
Q 3597 2675 3597 1894 
z
M 3022 2063 
Q 3016 2534 2758 2815 
Q 2500 3097 2075 3097 
Q 1594 3097 1305 2825 
Q 1016 2553 972 2059 
L 3022 2063 
z
" id="DejaVuSans-65" transform="scale(0.015625)"/>
      <path d="M 3122 3366 
L 3122 2828 
Q 2878 2963 2633 3030 
Q 2388 3097 2138 3097 
Q 1578 3097 1268 2742 
Q 959 2388 959 1747 
Q 959 1106 1268 751 
Q 1578 397 2138 397 
Q 2388 397 2633 464 
Q 2878 531 3122 666 
L 3122 134 
Q 2881 22 2623 -34 
Q 2366 -91 2075 -91 
Q 1284 -91 818 406 
Q 353 903 353 1747 
Q 353 2603 823 3093 
Q 1294 3584 2113 3584 
Q 2378 3584 2631 3529 
Q 2884 3475 3122 3366 
z
" id="DejaVuSans-63" transform="scale(0.015625)"/>
      <path d="M 2375 4863 
L 2375 4384 
L 1825 4384 
Q 1516 4384 1395 4259 
Q 1275 4134 1275 3809 
L 1275 3500 
L 2222 3500 
L 2222 3053 
L 1275 3053 
L 1275 0 
L 697 0 
L 697 3053 
L 147 3053 
L 147 3500 
L 697 3500 
L 697 3744 
Q 697 4328 969 4595 
Q 1241 4863 1831 4863 
L 2375 4863 
z
" id="DejaVuSans-66" transform="scale(0.015625)"/>
      <path d="M 2619 1628 
L 2622 2350 
Q 2625 3088 2069 3091 
Q 1653 3094 1394 2747 
Q 1069 2319 959 1747 
Q 825 1059 994 731 
Q 1169 397 1547 397 
Q 1966 397 2319 1063 
L 2619 1628 
z
M 2166 3578 
Q 3141 3594 3128 2584 
Q 3128 2584 3616 3500 
L 4128 3500 
L 3119 1603 
L 3109 919 
Q 3109 766 3194 638 
Q 3291 488 3391 488 
L 3669 488 
L 3575 0 
L 3228 0 
Q 2934 0 2722 263 
Q 2622 394 2619 669 
Q 2416 334 2066 50 
Q 1900 -81 1453 -78 
Q 722 -72 456 397 
Q 184 884 353 1747 
Q 534 2675 1009 3097 
Q 1544 3569 2166 3578 
z
" id="DejaVuSans-Oblique-3b1" transform="scale(0.015625)"/>
      <path d="M 684 794 
L 1344 794 
L 1344 0 
L 684 0 
L 684 794 
z
" id="DejaVuSans-2e" transform="scale(0.015625)"/>
     </defs>
     <use transform="translate(0 0.015625)" xlink:href="#DejaVuSans-49"/>
     <use transform="translate(29.492188 0.015625)" xlink:href="#DejaVuSans-6e"/>
     <use transform="translate(92.871094 0.015625)" xlink:href="#DejaVuSans-69"/>
     <use transform="translate(120.654297 0.015625)" xlink:href="#DejaVuSans-74"/>
     <use transform="translate(159.863281 0.015625)" xlink:href="#DejaVuSans-69"/>
     <use transform="translate(187.646484 0.015625)" xlink:href="#DejaVuSans-61"/>
     <use transform="translate(248.925781 0.015625)" xlink:href="#DejaVuSans-6c"/>
     <use transform="translate(276.708984 0.015625)" xlink:href="#DejaVuSans-20"/>
     <use transform="translate(308.496094 0.015625)" xlink:href="#DejaVuSans-6c"/>
     <use transform="translate(336.279297 0.015625)" xlink:href="#DejaVuSans-65"/>
     <use transform="translate(397.802734 0.015625)" xlink:href="#DejaVuSans-61"/>
     <use transform="translate(459.082031 0.015625)" xlink:href="#DejaVuSans-72"/>
     <use transform="translate(500.195312 0.015625)" xlink:href="#DejaVuSans-6e"/>
     <use transform="translate(563.574219 0.015625)" xlink:href="#DejaVuSans-69"/>
     <use transform="translate(591.357422 0.015625)" xlink:href="#DejaVuSans-6e"/>
     <use transform="translate(654.736328 0.015625)" xlink:href="#DejaVuSans-67"/>
     <use transform="translate(718.212891 0.015625)" xlink:href="#DejaVuSans-20"/>
     <use transform="translate(750 0.015625)" xlink:href="#DejaVuSans-63"/>
     <use transform="translate(804.980469 0.015625)" xlink:href="#DejaVuSans-6f"/>
     <use transform="translate(866.162109 0.015625)" xlink:href="#DejaVuSans-65"/>
     <use transform="translate(927.685547 0.015625)" xlink:href="#DejaVuSans-66"/>
     <use transform="translate(962.890625 0.015625)" xlink:href="#DejaVuSans-66"/>
     <use transform="translate(998.095703 0.015625)" xlink:href="#DejaVuSans-69"/>
     <use transform="translate(1025.878906 0.015625)" xlink:href="#DejaVuSans-63"/>
     <use transform="translate(1080.859375 0.015625)" xlink:href="#DejaVuSans-69"/>
     <use transform="translate(1108.642578 0.015625)" xlink:href="#DejaVuSans-65"/>
     <use transform="translate(1170.166016 0.015625)" xlink:href="#DejaVuSans-6e"/>
     <use transform="translate(1233.544922 0.015625)" xlink:href="#DejaVuSans-74"/>
     <use transform="translate(1272.753906 0.015625)" xlink:href="#DejaVuSans-3a"/>
     <use transform="translate(1306.445312 0.015625)" xlink:href="#DejaVuSans-20"/>
     <use transform="translate(1338.232422 0.015625)" xlink:href="#DejaVuSans-Oblique-3b1"/>
     <use transform="translate(1423.632812 0.015625)" xlink:href="#DejaVuSans-3d"/>
     <use transform="translate(1526.904297 0.015625)" xlink:href="#DejaVuSans-30"/>
     <use transform="translate(1590.527344 0.015625)" xlink:href="#DejaVuSans-2e"/>
     <use transform="translate(1622.314453 0.015625)" xlink:href="#DejaVuSans-31"/>
    </g>
    <!-- Steps taken: 50 Iterations: 50 -->
    <g transform="translate(147.075938 45.84)scale(0.12 -0.12)">
     <defs>
      <path d="M 2834 3397 
L 2834 2853 
Q 2591 2978 2328 3040 
Q 2066 3103 1784 3103 
Q 1356 3103 1142 2972 
Q 928 2841 928 2578 
Q 928 2378 1081 2264 
Q 1234 2150 1697 2047 
L 1894 2003 
Q 2506 1872 2764 1633 
Q 3022 1394 3022 966 
Q 3022 478 2636 193 
Q 2250 -91 1575 -91 
Q 1294 -91 989 -36 
Q 684 19 347 128 
L 347 722 
Q 666 556 975 473 
Q 1284 391 1588 391 
Q 1994 391 2212 530 
Q 2431 669 2431 922 
Q 2431 1156 2273 1281 
Q 2116 1406 1581 1522 
L 1381 1569 
Q 847 1681 609 1914 
Q 372 2147 372 2553 
Q 372 3047 722 3315 
Q 1072 3584 1716 3584 
Q 2034 3584 2315 3537 
Q 2597 3491 2834 3397 
z
" id="DejaVuSans-73" transform="scale(0.015625)"/>
      <path d="M 581 4863 
L 1159 4863 
L 1159 1991 
L 2875 3500 
L 3609 3500 
L 1753 1863 
L 3688 0 
L 2938 0 
L 1159 1709 
L 1159 0 
L 581 0 
L 581 4863 
z
" id="DejaVuSans-6b" transform="scale(0.015625)"/>
     </defs>
     <use xlink:href="#DejaVuSans-53"/>
     <use x="63.476562" xlink:href="#DejaVuSans-74"/>
     <use x="102.685547" xlink:href="#DejaVuSans-65"/>
     <use x="164.208984" xlink:href="#DejaVuSans-70"/>
     <use x="227.685547" xlink:href="#DejaVuSans-73"/>
     <use x="279.785156" xlink:href="#DejaVuSans-20"/>
     <use x="311.572266" xlink:href="#DejaVuSans-74"/>
     <use x="350.78125" xlink:href="#DejaVuSans-61"/>
     <use x="412.060547" xlink:href="#DejaVuSans-6b"/>
     <use x="466.345703" xlink:href="#DejaVuSans-65"/>
     <use x="527.869141" xlink:href="#DejaVuSans-6e"/>
     <use x="591.248047" xlink:href="#DejaVuSans-3a"/>
     <use x="624.939453" xlink:href="#DejaVuSans-20"/>
     <use x="656.726562" xlink:href="#DejaVuSans-35"/>
     <use x="720.349609" xlink:href="#DejaVuSans-30"/>
     <use x="783.972656" xlink:href="#DejaVuSans-20"/>
     <use x="815.759766" xlink:href="#DejaVuSans-49"/>
     <use x="845.251953" xlink:href="#DejaVuSans-74"/>
     <use x="884.460938" xlink:href="#DejaVuSans-65"/>
     <use x="945.984375" xlink:href="#DejaVuSans-72"/>
     <use x="987.097656" xlink:href="#DejaVuSans-61"/>
     <use x="1048.376953" xlink:href="#DejaVuSans-74"/>
     <use x="1087.585938" xlink:href="#DejaVuSans-69"/>
     <use x="1115.369141" xlink:href="#DejaVuSans-6f"/>
     <use x="1176.550781" xlink:href="#DejaVuSans-6e"/>
     <use x="1239.929688" xlink:href="#DejaVuSans-73"/>
     <use x="1292.029297" xlink:href="#DejaVuSans-3a"/>
     <use x="1325.720703" xlink:href="#DejaVuSans-20"/>
     <use x="1357.507812" xlink:href="#DejaVuSans-35"/>
     <use x="1421.130859" xlink:href="#DejaVuSans-30"/>
    </g>
   </g>
   <g id="LineCollection_1"/>
   <g id="LineCollection_2">
    <path clip-path="url(#p23fe1602bb)" d="M 414.72 155.864473 
L 398.487273 155.890064 
L 382.254545 155.751002 
L 366.021818 155.447286 
L 349.789091 154.978917 
L 333.556364 154.345895 
L 317.323636 153.548219 
L 301.090909 152.585889 
L 284.858182 151.458906 
L 268.625455 150.16727 
L 252.392727 148.71098 
L 236.16 147.090037 
L 219.927273 145.30444 
L 216.043389 144.837818 
L 203.694545 143.13743 
L 187.461818 140.713537 
L 171.229091 138.100934 
L 154.996364 135.299622 
L 143.668659 133.213091 
L 138.763636 132.155014 
L 122.530909 128.432405 
L 106.298182 124.488799 
L 94.992909 121.588364 
L 90.065455 120.063251 
L 73.832727 114.77239 
L 59.786931 109.963636 
L 57.6 109.020166 
" style="fill:none;stroke:#472d7b;stroke-width:1.5;"/>
   </g>
   <g id="LineCollection_3">
    <path clip-path="url(#p23fe1602bb)" d="M 414.72 195.752151 
L 398.487273 195.7691 
L 382.254545 195.677 
L 366.021818 195.475851 
L 349.789091 195.165654 
L 333.556364 194.746407 
L 317.323636 194.218112 
L 301.090909 193.580769 
L 284.858182 192.834376 
L 268.625455 191.978935 
L 257.81686 191.336727 
L 252.392727 190.984727 
L 236.16 189.812195 
L 219.927273 188.520558 
L 203.694545 187.109817 
L 187.461818 185.579972 
L 171.229091 183.931023 
L 154.996364 182.162969 
L 138.763636 180.275811 
L 134.201827 179.712 
L 122.530909 178.123026 
L 106.298182 175.781766 
L 90.065455 173.309304 
L 73.832727 170.70564 
L 58.291488 168.087273 
L 57.6 167.9576 
" style="fill:none;stroke:#3b528b;stroke-width:1.5;"/>
   </g>
   <g id="LineCollection_4">
    <path clip-path="url(#p23fe1602bb)" d="M 414.72 226.525281 
L 398.487273 226.538804 
L 382.254545 226.465317 
L 366.021818 226.30482 
L 359.862746 226.210909 
L 349.789091 226.046217 
L 333.556364 225.687535 
L 317.323636 225.235558 
L 301.090909 224.690286 
L 284.858182 224.051718 
L 268.625455 223.319854 
L 252.392727 222.494695 
L 236.16 221.576241 
L 219.927273 220.564491 
L 203.694545 219.459446 
L 187.461818 218.261105 
L 171.229091 216.969468 
L 154.996364 215.584536 
L 144.03322 214.586182 
L 138.763636 214.068949 
L 122.530909 212.375077 
L 106.298182 210.580646 
L 90.065455 208.685657 
L 73.832727 206.690108 
L 57.6 204.594 
" style="fill:none;stroke:#2c728e;stroke-width:1.5;"/>
   </g>
   <g id="LineCollection_5">
    <path clip-path="url(#p23fe1602bb)" d="M 414.72 252.323342 
L 398.487273 252.33526 
L 382.254545 252.270498 
L 366.021818 252.129057 
L 349.789091 251.910936 
L 333.556364 251.616135 
L 317.323636 251.244655 
L 301.090909 250.796495 
L 284.858182 250.271655 
L 268.625455 249.670135 
L 263.604555 249.460364 
L 252.392727 248.962373 
L 236.16 248.159851 
L 219.927273 247.275811 
L 203.694545 246.310251 
L 187.461818 245.263172 
L 171.229091 244.134574 
L 154.996364 242.924457 
L 138.763636 241.63282 
L 122.530909 240.259665 
L 106.298182 238.80499 
L 96.055169 237.835636 
L 90.065455 237.230611 
L 73.832727 235.503922 
L 57.6 233.690221 
" style="fill:none;stroke:#21918c;stroke-width:1.5;"/>
   </g>
   <g id="LineCollection_6">
    <path clip-path="url(#p23fe1602bb)" d="M 414.72 275.112934 
L 398.487273 275.123587 
L 382.254545 275.065698 
L 366.021818 274.939268 
L 349.789091 274.744297 
L 333.556364 274.480784 
L 317.323636 274.148729 
L 301.090909 273.748133 
L 284.858182 273.278995 
L 268.625455 272.741316 
L 267.782053 272.709818 
L 252.392727 272.102887 
L 236.16 271.390312 
L 219.927273 270.605353 
L 203.694545 269.748012 
L 187.461818 268.818289 
L 171.229091 267.816183 
L 154.996364 266.741694 
L 138.763636 265.594823 
L 122.530909 264.375569 
L 106.298182 263.083933 
L 90.065455 261.719914 
L 82.891339 261.085091 
L 73.832727 260.235926 
L 57.6 258.637571 
" style="fill:none;stroke:#28ae80;stroke-width:1.5;"/>
   </g>
   <g id="LineCollection_7">
    <path clip-path="url(#p23fe1602bb)" d="M 414.72 295.749987 
L 398.487273 295.760104 
L 382.254545 295.705132 
L 366.021818 295.585073 
L 349.789091 295.399926 
L 333.556364 295.149692 
L 317.323636 294.83437 
L 301.090909 294.453961 
L 284.858182 294.008464 
L 268.625455 293.497879 
L 252.392727 292.922206 
L 236.16 292.281446 
L 219.927273 291.575598 
L 203.694545 290.804663 
L 187.461818 289.96864 
L 171.229091 289.06753 
L 154.996364 288.101331 
L 138.763636 287.070046 
L 122.530909 285.973672 
L 106.298182 284.812211 
L 99.97653 284.334545 
L 90.065455 283.545922 
L 73.832727 282.185744 
L 57.6 280.757025 
" style="fill:none;stroke:#5ec962;stroke-width:1.5;"/>
   </g>
   <g id="LineCollection_8">
    <path clip-path="url(#p23fe1602bb)" d="M 153.360879 307.584 
L 138.763636 306.701109 
L 122.530909 305.657333 
L 106.298182 304.551592 
L 90.065455 303.383886 
L 73.832727 302.154215 
L 57.6 300.862578 
" style="fill:none;stroke:#addc30;stroke-width:1.5;"/>
   </g>
   <g id="LineCollection_9"/>
   <g id="line2d_14">
    <path clip-path="url(#p23fe1602bb)" d="M 74.098855 295.768691 
L 140.095218 248.506779 
L 192.892309 210.69725 
L 235.129981 180.449626 
L 268.920119 156.251528 
L 295.952229 136.893049 
L 317.577918 121.406265 
L 334.878468 109.016839 
L 348.718909 99.105298 
L 359.791261 91.176065 
L 368.649143 84.832678 
L 375.735449 79.757969 
L 381.404493 75.698202 
L 385.939729 72.450388 
L 389.567917 69.852137 
L 392.470468 67.773536 
L 394.792508 66.110655 
L 396.650141 64.780351 
L 398.136247 63.716107 
L 399.325132 62.864712 
L 400.276239 62.183596 
L 401.037126 61.638704 
L 401.645835 61.202789 
L 402.132802 60.854058 
L 402.522376 60.575073 
L 402.834035 60.351885 
L 403.083362 60.173334 
L 403.282824 60.030494 
L 403.442393 59.916222 
L 403.570049 59.824804 
L 403.672173 59.75167 
L 403.753873 59.693162 
L 403.819232 59.646356 
L 403.87152 59.608912 
L 403.91335 59.578956 
L 403.946814 59.554991 
L 403.973586 59.535819 
L 403.995003 59.520482 
L 404.012136 59.508212 
L 404.025843 59.498396 
L 404.036809 59.490543 
L 404.045581 59.484261 
L 404.052599 59.479236 
L 404.058213 59.475215 
L 404.062705 59.471998 
L 404.066298 59.469425 
L 404.069173 59.467367 
L 404.071472 59.46572 
L 404.073312 59.464402 
L 404.074784 59.463348 
L 404.075961 59.462505 
" style="fill:none;stroke:#1f77b4;stroke-linecap:square;stroke-width:1.5;"/>
    <defs>
     <path d="M -0 4.242641 
L 4.242641 0 
L 0 -4.242641 
L -4.242641 -0 
z
" id="m3dd590b5d6" style="stroke:#1f77b4;stroke-linejoin:miter;"/>
    </defs>
    <g clip-path="url(#p23fe1602bb)">
     <use style="fill:#1f77b4;stroke:#1f77b4;stroke-linejoin:miter;" x="74.098855" xlink:href="#m3dd590b5d6" y="295.768691"/>
     <use style="fill:#1f77b4;stroke:#1f77b4;stroke-linejoin:miter;" x="140.095218" xlink:href="#m3dd590b5d6" y="248.506779"/>
     <use style="fill:#1f77b4;stroke:#1f77b4;stroke-linejoin:miter;" x="192.892309" xlink:href="#m3dd590b5d6" y="210.69725"/>
     <use style="fill:#1f77b4;stroke:#1f77b4;stroke-linejoin:miter;" x="235.129981" xlink:href="#m3dd590b5d6" y="180.449626"/>
     <use style="fill:#1f77b4;stroke:#1f77b4;stroke-linejoin:miter;" x="268.920119" xlink:href="#m3dd590b5d6" y="156.251528"/>
     <use style="fill:#1f77b4;stroke:#1f77b4;stroke-linejoin:miter;" x="295.952229" xlink:href="#m3dd590b5d6" y="136.893049"/>
     <use style="fill:#1f77b4;stroke:#1f77b4;stroke-linejoin:miter;" x="317.577918" xlink:href="#m3dd590b5d6" y="121.406265"/>
     <use style="fill:#1f77b4;stroke:#1f77b4;stroke-linejoin:miter;" x="334.878468" xlink:href="#m3dd590b5d6" y="109.016839"/>
     <use style="fill:#1f77b4;stroke:#1f77b4;stroke-linejoin:miter;" x="348.718909" xlink:href="#m3dd590b5d6" y="99.105298"/>
     <use style="fill:#1f77b4;stroke:#1f77b4;stroke-linejoin:miter;" x="359.791261" xlink:href="#m3dd590b5d6" y="91.176065"/>
     <use style="fill:#1f77b4;stroke:#1f77b4;stroke-linejoin:miter;" x="368.649143" xlink:href="#m3dd590b5d6" y="84.832678"/>
     <use style="fill:#1f77b4;stroke:#1f77b4;stroke-linejoin:miter;" x="375.735449" xlink:href="#m3dd590b5d6" y="79.757969"/>
     <use style="fill:#1f77b4;stroke:#1f77b4;stroke-linejoin:miter;" x="381.404493" xlink:href="#m3dd590b5d6" y="75.698202"/>
     <use style="fill:#1f77b4;stroke:#1f77b4;stroke-linejoin:miter;" x="385.939729" xlink:href="#m3dd590b5d6" y="72.450388"/>
     <use style="fill:#1f77b4;stroke:#1f77b4;stroke-linejoin:miter;" x="389.567917" xlink:href="#m3dd590b5d6" y="69.852137"/>
     <use style="fill:#1f77b4;stroke:#1f77b4;stroke-linejoin:miter;" x="392.470468" xlink:href="#m3dd590b5d6" y="67.773536"/>
     <use style="fill:#1f77b4;stroke:#1f77b4;stroke-linejoin:miter;" x="394.792508" xlink:href="#m3dd590b5d6" y="66.110655"/>
     <use style="fill:#1f77b4;stroke:#1f77b4;stroke-linejoin:miter;" x="396.650141" xlink:href="#m3dd590b5d6" y="64.780351"/>
     <use style="fill:#1f77b4;stroke:#1f77b4;stroke-linejoin:miter;" x="398.136247" xlink:href="#m3dd590b5d6" y="63.716107"/>
     <use style="fill:#1f77b4;stroke:#1f77b4;stroke-linejoin:miter;" x="399.325132" xlink:href="#m3dd590b5d6" y="62.864712"/>
     <use style="fill:#1f77b4;stroke:#1f77b4;stroke-linejoin:miter;" x="400.276239" xlink:href="#m3dd590b5d6" y="62.183596"/>
     <use style="fill:#1f77b4;stroke:#1f77b4;stroke-linejoin:miter;" x="401.037126" xlink:href="#m3dd590b5d6" y="61.638704"/>
     <use style="fill:#1f77b4;stroke:#1f77b4;stroke-linejoin:miter;" x="401.645835" xlink:href="#m3dd590b5d6" y="61.202789"/>
     <use style="fill:#1f77b4;stroke:#1f77b4;stroke-linejoin:miter;" x="402.132802" xlink:href="#m3dd590b5d6" y="60.854058"/>
     <use style="fill:#1f77b4;stroke:#1f77b4;stroke-linejoin:miter;" x="402.522376" xlink:href="#m3dd590b5d6" y="60.575073"/>
     <use style="fill:#1f77b4;stroke:#1f77b4;stroke-linejoin:miter;" x="402.834035" xlink:href="#m3dd590b5d6" y="60.351885"/>
     <use style="fill:#1f77b4;stroke:#1f77b4;stroke-linejoin:miter;" x="403.083362" xlink:href="#m3dd590b5d6" y="60.173334"/>
     <use style="fill:#1f77b4;stroke:#1f77b4;stroke-linejoin:miter;" x="403.282824" xlink:href="#m3dd590b5d6" y="60.030494"/>
     <use style="fill:#1f77b4;stroke:#1f77b4;stroke-linejoin:miter;" x="403.442393" xlink:href="#m3dd590b5d6" y="59.916222"/>
     <use style="fill:#1f77b4;stroke:#1f77b4;stroke-linejoin:miter;" x="403.570049" xlink:href="#m3dd590b5d6" y="59.824804"/>
     <use style="fill:#1f77b4;stroke:#1f77b4;stroke-linejoin:miter;" x="403.672173" xlink:href="#m3dd590b5d6" y="59.75167"/>
     <use style="fill:#1f77b4;stroke:#1f77b4;stroke-linejoin:miter;" x="403.753873" xlink:href="#m3dd590b5d6" y="59.693162"/>
     <use style="fill:#1f77b4;stroke:#1f77b4;stroke-linejoin:miter;" x="403.819232" xlink:href="#m3dd590b5d6" y="59.646356"/>
     <use style="fill:#1f77b4;stroke:#1f77b4;stroke-linejoin:miter;" x="403.87152" xlink:href="#m3dd590b5d6" y="59.608912"/>
     <use style="fill:#1f77b4;stroke:#1f77b4;stroke-linejoin:miter;" x="403.91335" xlink:href="#m3dd590b5d6" y="59.578956"/>
     <use style="fill:#1f77b4;stroke:#1f77b4;stroke-linejoin:miter;" x="403.946814" xlink:href="#m3dd590b5d6" y="59.554991"/>
     <use style="fill:#1f77b4;stroke:#1f77b4;stroke-linejoin:miter;" x="403.973586" xlink:href="#m3dd590b5d6" y="59.535819"/>
     <use style="fill:#1f77b4;stroke:#1f77b4;stroke-linejoin:miter;" x="403.995003" xlink:href="#m3dd590b5d6" y="59.520482"/>
     <use style="fill:#1f77b4;stroke:#1f77b4;stroke-linejoin:miter;" x="404.012136" xlink:href="#m3dd590b5d6" y="59.508212"/>
     <use style="fill:#1f77b4;stroke:#1f77b4;stroke-linejoin:miter;" x="404.025843" xlink:href="#m3dd590b5d6" y="59.498396"/>
     <use style="fill:#1f77b4;stroke:#1f77b4;stroke-linejoin:miter;" x="404.036809" xlink:href="#m3dd590b5d6" y="59.490543"/>
     <use style="fill:#1f77b4;stroke:#1f77b4;stroke-linejoin:miter;" x="404.045581" xlink:href="#m3dd590b5d6" y="59.484261"/>
     <use style="fill:#1f77b4;stroke:#1f77b4;stroke-linejoin:miter;" x="404.052599" xlink:href="#m3dd590b5d6" y="59.479236"/>
     <use style="fill:#1f77b4;stroke:#1f77b4;stroke-linejoin:miter;" x="404.058213" xlink:href="#m3dd590b5d6" y="59.475215"/>
     <use style="fill:#1f77b4;stroke:#1f77b4;stroke-linejoin:miter;" x="404.062705" xlink:href="#m3dd590b5d6" y="59.471998"/>
     <use style="fill:#1f77b4;stroke:#1f77b4;stroke-linejoin:miter;" x="404.066298" xlink:href="#m3dd590b5d6" y="59.469425"/>
     <use style="fill:#1f77b4;stroke:#1f77b4;stroke-linejoin:miter;" x="404.069173" xlink:href="#m3dd590b5d6" y="59.467367"/>
     <use style="fill:#1f77b4;stroke:#1f77b4;stroke-linejoin:miter;" x="404.071472" xlink:href="#m3dd590b5d6" y="59.46572"/>
     <use style="fill:#1f77b4;stroke:#1f77b4;stroke-linejoin:miter;" x="404.073312" xlink:href="#m3dd590b5d6" y="59.464402"/>
     <use style="fill:#1f77b4;stroke:#1f77b4;stroke-linejoin:miter;" x="404.074784" xlink:href="#m3dd590b5d6" y="59.463348"/>
     <use style="fill:#1f77b4;stroke:#1f77b4;stroke-linejoin:miter;" x="404.075961" xlink:href="#m3dd590b5d6" y="59.462505"/>
    </g>
   </g>
  </g>
 </g>
 <defs>
  <clipPath id="p23fe1602bb">
   <rect height="255.744" width="357.12" x="57.6" y="51.84"/>
  </clipPath>
 </defs>
</svg>
